<svg xmlns="http://www.w3.org/2000/svg" version="1.1" xmlns:xlink="http://www.w3.org/1999/xlink" xmlns:svgjs="http://svgjs.com/svgjs" width="150" height="150"><svg width="150" height="150" viewBox="0 0 150 150" fill="none" xmlns="http://www.w3.org/2000/svg">
  <g id="SvgjsG1005">
    <g id="SvgjsG1004">
      <path id="SvgjsPath1003" d="M147.5 75C147.5 115.041 115.041 147.5 75 147.5C34.9594 147.5 2.5 115.041 2.5 75C2.5 34.9594 34.9594 2.5 75 2.5C115.041 2.5 147.5 34.9594 147.5 75Z" fill="#fbc641" stroke="black" stroke-width="5"></path>
      <path id="SvgjsPath1002" d="M25.3125 82.5C60.3904 145.839 121.101 102.98 125.625 82.5" stroke="black" stroke-width="5"></path>
      <path id="SvgjsPath1001" d="M52.5 66.5625C57.6777 66.5625 61.875 57.3284 61.875 45.9375C61.875 34.5466 57.6777 25.3125 52.5 25.3125C47.3223 25.3125 43.125 34.5466 43.125 45.9375C43.125 57.3284 47.3223 66.5625 52.5 66.5625Z" fill="black"></path>
      <path id="SvgjsPath1000" d="M98.4375 66.5625C103.615 66.5625 107.812 57.3284 107.812 45.9375C107.812 34.5466 103.615 25.3125 98.4375 25.3125C93.2598 25.3125 89.0625 34.5466 89.0625 45.9375C89.0625 57.3284 93.2598 66.5625 98.4375 66.5625Z" fill="black"></path>
    </g>
  </g>
</svg><style>@media (prefers-color-scheme: light) { :root { filter: none; } }
</style></svg>